<svg width="348" height="256" viewBox="0 0 348 256" fill="none" xmlns="http://www.w3.org/2000/svg">
<g filter="url(#filter0_ddd_1017_2140)">
<g clip-path="url(#clip0_1017_2140)">
<g filter="url(#filter1_ddd_1017_2140)">
<rect width="328" height="114" transform="translate(10 9)" fill="#DAF2D0"/>
<path d="M41.41 35.87H37.045L36.295 38H34.51L38.245 27.56H40.225L43.96 38H42.16L41.41 35.87ZM40.93 34.475L39.235 29.63L37.525 34.475H40.93ZM55.649 38H53.939L48.794 30.215V38H47.084V27.56H48.794L53.939 35.33V27.56H55.649V38ZM66.9395 30.575C66.6695 30.055 66.2945 29.665 65.8145 29.405C65.3345 29.135 64.7795 29 64.1495 29C63.4595 29 62.8445 29.155 62.3045 29.465C61.7645 29.775 61.3395 30.215 61.0295 30.785C60.7295 31.355 60.5795 32.015 60.5795 32.765C60.5795 33.515 60.7295 34.18 61.0295 34.76C61.3395 35.33 61.7645 35.77 62.3045 36.08C62.8445 36.39 63.4595 36.545 64.1495 36.545C65.0795 36.545 65.8345 36.285 66.4145 35.765C66.9945 35.245 67.3495 34.54 67.4795 33.65H63.5645V32.285H69.3095V33.62C69.1995 34.43 68.9095 35.175 68.4395 35.855C67.9795 36.535 67.3745 37.08 66.6245 37.49C65.8845 37.89 65.0595 38.09 64.1495 38.09C63.1695 38.09 62.2745 37.865 61.4645 37.415C60.6545 36.955 60.0095 36.32 59.5295 35.51C59.0595 34.7 58.8245 33.785 58.8245 32.765C58.8245 31.745 59.0595 30.83 59.5295 30.02C60.0095 29.21 60.6545 28.58 61.4645 28.13C62.2845 27.67 63.1795 27.44 64.1495 27.44C65.2595 27.44 66.2445 27.715 67.1045 28.265C67.9745 28.805 68.6045 29.575 68.9945 30.575H66.9395ZM80.0411 30.575C79.7711 30.055 79.3961 29.665 78.9161 29.405C78.4361 29.135 77.8811 29 77.2511 29C76.5611 29 75.9461 29.155 75.4061 29.465C74.8661 29.775 74.4411 30.215 74.1311 30.785C73.8311 31.355 73.6811 32.015 73.6811 32.765C73.6811 33.515 73.8311 34.18 74.1311 34.76C74.4411 35.33 74.8661 35.77 75.4061 36.08C75.9461 36.39 76.5611 36.545 77.2511 36.545C78.1811 36.545 78.9361 36.285 79.5161 35.765C80.0961 35.245 80.4511 34.54 80.5811 33.65H76.6661V32.285H82.4111V33.62C82.3011 34.43 82.0111 35.175 81.5411 35.855C81.0811 36.535 80.4761 37.08 79.7261 37.49C78.9861 37.89 78.1611 38.09 77.2511 38.09C76.2711 38.09 75.3761 37.865 74.5661 37.415C73.7561 36.955 73.1111 36.32 72.6311 35.51C72.1611 34.7 71.9261 33.785 71.9261 32.765C71.9261 31.745 72.1611 30.83 72.6311 30.02C73.1111 29.21 73.7561 28.58 74.5661 28.13C75.3861 27.67 76.2811 27.44 77.2511 27.44C78.3611 27.44 79.3461 27.715 80.2061 28.265C81.0761 28.805 81.7061 29.575 82.0961 30.575H80.0411ZM90.3527 38.105C89.3827 38.105 88.4877 37.88 87.6677 37.43C86.8577 36.97 86.2127 36.335 85.7327 35.525C85.2627 34.705 85.0277 33.785 85.0277 32.765C85.0277 31.745 85.2627 30.83 85.7327 30.02C86.2127 29.21 86.8577 28.58 87.6677 28.13C88.4877 27.67 89.3827 27.44 90.3527 27.44C91.3327 27.44 92.2277 27.67 93.0377 28.13C93.8577 28.58 94.5027 29.21 94.9727 30.02C95.4427 30.83 95.6777 31.745 95.6777 32.765C95.6777 33.785 95.4427 34.705 94.9727 35.525C94.5027 36.335 93.8577 36.97 93.0377 37.43C92.2277 37.88 91.3327 38.105 90.3527 38.105ZM90.3527 36.62C91.0427 36.62 91.6577 36.465 92.1977 36.155C92.7377 35.835 93.1577 35.385 93.4577 34.805C93.7677 34.215 93.9227 33.535 93.9227 32.765C93.9227 31.995 93.7677 31.32 93.4577 30.74C93.1577 30.16 92.7377 29.715 92.1977 29.405C91.6577 29.095 91.0427 28.94 90.3527 28.94C89.6627 28.94 89.0477 29.095 88.5077 29.405C87.9677 29.715 87.5427 30.16 87.2327 30.74C86.9327 31.32 86.7827 31.995 86.7827 32.765C86.7827 33.535 86.9327 34.215 87.2327 34.805C87.5427 35.385 87.9677 35.835 88.5077 36.155C89.0477 36.465 89.6627 36.62 90.3527 36.62ZM105.595 27.575V28.97H102.82V38H101.11V28.97H98.3204V27.575H105.595ZM115.112 35.87H110.747L109.997 38H108.212L111.947 27.56H113.927L117.662 38H115.862L115.112 35.87ZM114.632 34.475L112.937 29.63L111.227 34.475H114.632Z" fill="#0C0C0D"/>
<path d="M52.462 86.238C52.462 88.21 51.782 89.8533 50.422 91.168C49.0847 92.46 47.0333 93.106 44.268 93.106H39.712V103H36.618V79.302H44.268C46.9427 79.302 48.9713 79.948 50.354 81.24C51.7593 82.532 52.462 84.198 52.462 86.238ZM44.268 90.556C45.9907 90.556 47.26 90.182 48.076 89.434C48.892 88.686 49.3 87.6207 49.3 86.238C49.3 83.314 47.6227 81.852 44.268 81.852H39.712V90.556H44.268ZM64.4335 103.306C62.6881 103.306 61.1015 102.909 59.6735 102.116C58.2681 101.323 57.1575 100.201 56.3415 98.75C55.5481 97.2767 55.1515 95.5767 55.1515 93.65C55.1515 91.746 55.5595 90.0687 56.3755 88.618C57.2141 87.1447 58.3475 86.0227 59.7755 85.252C61.2035 84.4587 62.8015 84.062 64.5695 84.062C66.3375 84.062 67.9355 84.4587 69.3635 85.252C70.7915 86.0227 71.9135 87.1333 72.7295 88.584C73.5681 90.0347 73.9875 91.7233 73.9875 93.65C73.9875 95.5767 73.5568 97.2767 72.6955 98.75C71.8568 100.201 70.7121 101.323 69.2615 102.116C67.8108 102.909 66.2015 103.306 64.4335 103.306ZM64.4335 100.586C65.5441 100.586 66.5868 100.325 67.5615 99.804C68.5361 99.2827 69.3181 98.5007 69.9075 97.458C70.5195 96.4153 70.8255 95.146 70.8255 93.65C70.8255 92.154 70.5308 90.8847 69.9415 89.842C69.3521 88.7993 68.5815 88.0287 67.6295 87.53C66.6775 87.0087 65.6461 86.748 64.5355 86.748C63.4021 86.748 62.3595 87.0087 61.4075 87.53C60.4781 88.0287 59.7301 88.7993 59.1635 89.842C58.5968 90.8847 58.3135 92.154 58.3135 93.65C58.3135 95.1687 58.5855 96.4493 59.1295 97.492C59.6961 98.5347 60.4441 99.3167 61.3735 99.838C62.3028 100.337 63.3228 100.586 64.4335 100.586ZM81.1495 77.84V103H78.0555V77.84H81.1495ZM88.0207 81.342C87.4314 81.342 86.9327 81.138 86.5247 80.73C86.1167 80.322 85.9127 79.8233 85.9127 79.234C85.9127 78.6447 86.1167 78.146 86.5247 77.738C86.9327 77.33 87.4314 77.126 88.0207 77.126C88.5874 77.126 89.0634 77.33 89.4487 77.738C89.8567 78.146 90.0607 78.6447 90.0607 79.234C90.0607 79.8233 89.8567 80.322 89.4487 80.73C89.0634 81.138 88.5874 81.342 88.0207 81.342ZM89.5167 84.368V103H86.4227V84.368H89.5167ZM97.8839 87.836C98.5185 86.7253 99.4479 85.8187 100.672 85.116C101.896 84.4133 103.29 84.062 104.854 84.062C106.531 84.062 108.039 84.4587 109.376 85.252C110.713 86.0453 111.767 87.1673 112.538 88.618C113.309 90.046 113.694 91.712 113.694 93.616C113.694 95.4973 113.309 97.1747 112.538 98.648C111.767 100.121 110.702 101.266 109.342 102.082C108.005 102.898 106.509 103.306 104.854 103.306C103.245 103.306 101.828 102.955 100.604 102.252C99.4025 101.549 98.4959 100.654 97.8839 99.566V103H94.7899V77.84H97.8839V87.836ZM110.532 93.616C110.532 92.2107 110.249 90.9867 109.682 89.944C109.115 88.9013 108.345 88.108 107.37 87.564C106.418 87.02 105.364 86.748 104.208 86.748C103.075 86.748 102.021 87.0313 101.046 87.598C100.094 88.142 99.3232 88.9467 98.7339 90.012C98.1672 91.0547 97.8839 92.2673 97.8839 93.65C97.8839 95.0553 98.1672 96.2907 98.7339 97.356C99.3232 98.3987 100.094 99.2033 101.046 99.77C102.021 100.314 103.075 100.586 104.208 100.586C105.364 100.586 106.418 100.314 107.37 99.77C108.345 99.2033 109.115 98.3987 109.682 97.356C110.249 96.2907 110.532 95.044 110.532 93.616ZM116.61 93.616C116.61 91.712 116.996 90.046 117.766 88.618C118.537 87.1673 119.591 86.0453 120.928 85.252C122.288 84.4587 123.796 84.062 125.45 84.062C127.082 84.062 128.499 84.4133 129.7 85.116C130.902 85.8187 131.797 86.7027 132.386 87.768V84.368H135.514V103H132.386V99.532C131.774 100.62 130.856 101.527 129.632 102.252C128.431 102.955 127.026 103.306 125.416 103.306C123.762 103.306 122.266 102.898 120.928 102.082C119.591 101.266 118.537 100.121 117.766 98.648C116.996 97.1747 116.61 95.4973 116.61 93.616ZM132.386 93.65C132.386 92.2447 132.103 91.0207 131.536 89.978C130.97 88.9353 130.199 88.142 129.224 87.598C128.272 87.0313 127.218 86.748 126.062 86.748C124.906 86.748 123.852 87.02 122.9 87.564C121.948 88.108 121.189 88.9013 120.622 89.944C120.056 90.9867 119.772 92.2107 119.772 93.616C119.772 95.044 120.056 96.2907 120.622 97.356C121.189 98.3987 121.948 99.2033 122.9 99.77C123.852 100.314 124.906 100.586 126.062 100.586C127.218 100.586 128.272 100.314 129.224 99.77C130.199 99.2033 130.97 98.3987 131.536 97.356C132.103 96.2907 132.386 95.0553 132.386 93.65ZM144.517 86.918V97.9C144.517 98.8067 144.71 99.4527 145.095 99.838C145.48 100.201 146.149 100.382 147.101 100.382H149.379V103H146.591C144.868 103 143.576 102.603 142.715 101.81C141.854 101.017 141.423 99.7133 141.423 97.9V86.918H139.009V84.368H141.423V79.676H144.517V84.368H149.379V86.918H144.517ZM151.972 93.616C151.972 91.712 152.357 90.046 153.128 88.618C153.898 87.1673 154.952 86.0453 156.29 85.252C157.65 84.4587 159.157 84.062 160.812 84.062C162.444 84.062 163.86 84.4133 165.062 85.116C166.263 85.8187 167.158 86.7027 167.748 87.768V84.368H170.876V103H167.748V99.532C167.136 100.62 166.218 101.527 164.994 102.252C163.792 102.955 162.387 103.306 160.778 103.306C159.123 103.306 157.627 102.898 156.29 102.082C154.952 101.266 153.898 100.121 153.128 98.648C152.357 97.1747 151.972 95.4973 151.972 93.616ZM167.748 93.65C167.748 92.2447 167.464 91.0207 166.898 89.978C166.331 88.9353 165.56 88.142 164.586 87.598C163.634 87.0313 162.58 86.748 161.424 86.748C160.268 86.748 159.214 87.02 158.262 87.564C157.31 88.108 156.55 88.9013 155.984 89.944C155.417 90.9867 155.134 92.2107 155.134 93.616C155.134 95.044 155.417 96.2907 155.984 97.356C156.55 98.3987 157.31 99.2033 158.262 99.77C159.214 100.314 160.268 100.586 161.424 100.586C162.58 100.586 163.634 100.314 164.586 99.77C165.56 99.2033 166.331 98.3987 166.898 97.356C167.464 96.2907 167.748 95.0553 167.748 93.65ZM198.51 84.028C199.961 84.028 201.253 84.334 202.386 84.946C203.52 85.5353 204.415 86.4307 205.072 87.632C205.73 88.8333 206.058 90.2953 206.058 92.018V103H202.998V92.46C202.998 90.6013 202.534 89.1847 201.604 88.21C200.698 87.2127 199.462 86.714 197.898 86.714C196.289 86.714 195.008 87.2353 194.056 88.278C193.104 89.298 192.628 90.7827 192.628 92.732V103H189.568V92.46C189.568 90.6013 189.104 89.1847 188.174 88.21C187.268 87.2127 186.032 86.714 184.468 86.714C182.859 86.714 181.578 87.2353 180.626 88.278C179.674 89.298 179.198 90.7827 179.198 92.732V103H176.104V84.368H179.198V87.054C179.81 86.0793 180.626 85.3313 181.646 84.81C182.689 84.2887 183.834 84.028 185.08 84.028C186.644 84.028 188.027 84.3793 189.228 85.082C190.43 85.7847 191.325 86.816 191.914 88.176C192.436 86.8613 193.297 85.8413 194.498 85.116C195.7 84.3907 197.037 84.028 198.51 84.028Z" fill="black"/>
</g>
<rect width="328" height="150" transform="translate(10 123)" fill="white"/>
<g filter="url(#filter2_d_1017_2140)">
<rect x="38" y="153" width="273" height="70" rx="12" fill="#34C759" shape-rendering="crispEdges"/>
</g>
<path d="M80.5121 181.49V183.164H77.1821V194H75.1301V183.164H71.7821V181.49H80.5121ZM81.9062 188.996C81.9062 188 82.1102 187.118 82.5182 186.35C82.9382 185.582 83.5022 184.988 84.2102 184.568C84.9302 184.136 85.7222 183.92 86.5862 183.92C87.3662 183.92 88.0442 184.076 88.6202 184.388C89.2082 184.688 89.6762 185.066 90.0242 185.522V184.082H92.0942V194H90.0242V192.524C89.6762 192.992 89.2022 193.382 88.6022 193.694C88.0022 194.006 87.3182 194.162 86.5502 194.162C85.6982 194.162 84.9182 193.946 84.2102 193.514C83.5022 193.07 82.9382 192.458 82.5182 191.678C82.1102 190.886 81.9062 189.992 81.9062 188.996ZM90.0242 189.032C90.0242 188.348 89.8802 187.754 89.5922 187.25C89.3162 186.746 88.9502 186.362 88.4942 186.098C88.0382 185.834 87.5462 185.702 87.0182 185.702C86.4902 185.702 85.9982 185.834 85.5422 186.098C85.0862 186.35 84.7142 186.728 84.4262 187.232C84.1502 187.724 84.0122 188.312 84.0122 188.996C84.0122 189.68 84.1502 190.28 84.4262 190.796C84.7142 191.312 85.0862 191.708 85.5422 191.984C86.0102 192.248 86.5022 192.38 87.0182 192.38C87.5462 192.38 88.0382 192.248 88.4942 191.984C88.9502 191.72 89.3162 191.336 89.5922 190.832C89.8802 190.316 90.0242 189.716 90.0242 189.032ZM106.795 183.92C107.575 183.92 108.271 184.082 108.883 184.406C109.507 184.73 109.993 185.21 110.341 185.846C110.701 186.482 110.881 187.25 110.881 188.15V194H108.847V188.456C108.847 187.568 108.625 186.89 108.181 186.422C107.737 185.942 107.131 185.702 106.363 185.702C105.595 185.702 104.983 185.942 104.527 186.422C104.083 186.89 103.861 187.568 103.861 188.456V194H101.827V188.456C101.827 187.568 101.605 186.89 101.161 186.422C100.717 185.942 100.111 185.702 99.3435 185.702C98.5755 185.702 97.9635 185.942 97.5075 186.422C97.0635 186.89 96.8415 187.568 96.8415 188.456V194H94.7895V184.082H96.8415V185.216C97.1775 184.808 97.6035 184.49 98.1195 184.262C98.6355 184.034 99.1875 183.92 99.7755 183.92C100.567 183.92 101.275 184.088 101.899 184.424C102.523 184.76 103.003 185.246 103.339 185.882C103.639 185.282 104.107 184.808 104.743 184.46C105.379 184.1 106.063 183.92 106.795 183.92ZM115.545 185.558C115.893 185.078 116.367 184.688 116.967 184.388C117.579 184.076 118.257 183.92 119.001 183.92C119.877 183.92 120.669 184.13 121.377 184.55C122.085 184.97 122.643 185.57 123.051 186.35C123.459 187.118 123.663 188 123.663 188.996C123.663 189.992 123.459 190.886 123.051 191.678C122.643 192.458 122.079 193.07 121.359 193.514C120.651 193.946 119.865 194.162 119.001 194.162C118.233 194.162 117.549 194.012 116.949 193.712C116.361 193.412 115.893 193.028 115.545 192.56V194H113.493V180.68H115.545V185.558ZM121.575 188.996C121.575 188.312 121.431 187.724 121.143 187.232C120.867 186.728 120.495 186.35 120.027 186.098C119.571 185.834 119.079 185.702 118.551 185.702C118.035 185.702 117.543 185.834 117.075 186.098C116.619 186.362 116.247 186.746 115.959 187.25C115.683 187.754 115.545 188.348 115.545 189.032C115.545 189.716 115.683 190.316 115.959 190.832C116.247 191.336 116.619 191.72 117.075 191.984C117.543 192.248 118.035 192.38 118.551 192.38C119.079 192.38 119.571 192.248 120.027 191.984C120.495 191.708 120.867 191.312 121.143 190.796C121.431 190.28 121.575 189.68 121.575 188.996ZM125.008 188.996C125.008 188 125.212 187.118 125.62 186.35C126.04 185.582 126.604 184.988 127.312 184.568C128.032 184.136 128.824 183.92 129.688 183.92C130.468 183.92 131.146 184.076 131.722 184.388C132.31 184.688 132.778 185.066 133.126 185.522V184.082H135.196V194H133.126V192.524C132.778 192.992 132.304 193.382 131.704 193.694C131.104 194.006 130.42 194.162 129.652 194.162C128.8 194.162 128.02 193.946 127.312 193.514C126.604 193.07 126.04 192.458 125.62 191.678C125.212 190.886 125.008 189.992 125.008 188.996ZM133.126 189.032C133.126 188.348 132.982 187.754 132.694 187.25C132.418 186.746 132.052 186.362 131.596 186.098C131.14 185.834 130.648 185.702 130.12 185.702C129.592 185.702 129.1 185.834 128.644 186.098C128.188 186.35 127.816 186.728 127.528 187.232C127.252 187.724 127.114 188.312 127.114 188.996C127.114 189.68 127.252 190.28 127.528 190.796C127.816 191.312 128.188 191.708 128.644 191.984C129.112 192.248 129.604 192.38 130.12 192.38C130.648 192.38 131.14 192.248 131.596 191.984C132.052 191.72 132.418 191.336 132.694 190.832C132.982 190.316 133.126 189.716 133.126 189.032ZM143.021 183.92C143.777 183.92 144.449 184.082 145.037 184.406C145.637 184.73 146.105 185.21 146.441 185.846C146.789 186.482 146.963 187.25 146.963 188.15V194H144.929V188.456C144.929 187.568 144.707 186.89 144.263 186.422C143.819 185.942 143.213 185.702 142.445 185.702C141.677 185.702 141.065 185.942 140.609 186.422C140.165 186.89 139.943 187.568 139.943 188.456V194H137.891V180.68H139.943V185.234C140.291 184.814 140.729 184.49 141.257 184.262C141.797 184.034 142.385 183.92 143.021 183.92ZM161.798 191.444H156.56L155.66 194H153.518L158 181.472H160.376L164.858 194H162.698L161.798 191.444ZM161.222 189.77L159.188 183.956L157.136 189.77H161.222ZM171.811 183.92C172.591 183.92 173.287 184.082 173.899 184.406C174.523 184.73 175.009 185.21 175.357 185.846C175.705 186.482 175.879 187.25 175.879 188.15V194H173.845V188.456C173.845 187.568 173.623 186.89 173.179 186.422C172.735 185.942 172.129 185.702 171.361 185.702C170.593 185.702 169.981 185.942 169.525 186.422C169.081 186.89 168.859 187.568 168.859 188.456V194H166.807V184.082H168.859V185.216C169.195 184.808 169.621 184.49 170.137 184.262C170.665 184.034 171.223 183.92 171.811 183.92ZM182.492 183.92C183.26 183.92 183.938 184.076 184.526 184.388C185.126 184.688 185.594 185.066 185.93 185.522V184.082H188V194.162C188 195.074 187.808 195.884 187.424 196.592C187.04 197.312 186.482 197.876 185.75 198.284C185.03 198.692 184.166 198.896 183.158 198.896C181.814 198.896 180.698 198.578 179.81 197.942C178.922 197.318 178.418 196.466 178.298 195.386H180.332C180.488 195.902 180.818 196.316 181.322 196.628C181.838 196.952 182.45 197.114 183.158 197.114C183.986 197.114 184.652 196.862 185.156 196.358C185.672 195.854 185.93 195.122 185.93 194.162V192.506C185.582 192.974 185.108 193.37 184.508 193.694C183.92 194.006 183.248 194.162 182.492 194.162C181.628 194.162 180.836 193.946 180.116 193.514C179.408 193.07 178.844 192.458 178.424 191.678C178.016 190.886 177.812 189.992 177.812 188.996C177.812 188 178.016 187.118 178.424 186.35C178.844 185.582 179.408 184.988 180.116 184.568C180.836 184.136 181.628 183.92 182.492 183.92ZM185.93 189.032C185.93 188.348 185.786 187.754 185.498 187.25C185.222 186.746 184.856 186.362 184.4 186.098C183.944 185.834 183.452 185.702 182.924 185.702C182.396 185.702 181.904 185.834 181.448 186.098C180.992 186.35 180.62 186.728 180.332 187.232C180.056 187.724 179.918 188.312 179.918 188.996C179.918 189.68 180.056 190.28 180.332 190.796C180.62 191.312 180.992 191.708 181.448 191.984C181.916 192.248 182.408 192.38 182.924 192.38C183.452 192.38 183.944 192.248 184.4 191.984C184.856 191.72 185.222 191.336 185.498 190.832C185.786 190.316 185.93 189.716 185.93 189.032ZM194.692 183.92C195.46 183.92 196.138 184.076 196.726 184.388C197.326 184.688 197.794 185.066 198.13 185.522V184.082H200.2V194.162C200.2 195.074 200.008 195.884 199.624 196.592C199.24 197.312 198.682 197.876 197.95 198.284C197.23 198.692 196.366 198.896 195.358 198.896C194.014 198.896 192.898 198.578 192.01 197.942C191.122 197.318 190.618 196.466 190.498 195.386H192.532C192.688 195.902 193.018 196.316 193.522 196.628C194.038 196.952 194.65 197.114 195.358 197.114C196.186 197.114 196.852 196.862 197.356 196.358C197.872 195.854 198.13 195.122 198.13 194.162V192.506C197.782 192.974 197.308 193.37 196.708 193.694C196.12 194.006 195.448 194.162 194.692 194.162C193.828 194.162 193.036 193.946 192.316 193.514C191.608 193.07 191.044 192.458 190.624 191.678C190.216 190.886 190.012 189.992 190.012 188.996C190.012 188 190.216 187.118 190.624 186.35C191.044 185.582 191.608 184.988 192.316 184.568C193.036 184.136 193.828 183.92 194.692 183.92ZM198.13 189.032C198.13 188.348 197.986 187.754 197.698 187.25C197.422 186.746 197.056 186.362 196.6 186.098C196.144 185.834 195.652 185.702 195.124 185.702C194.596 185.702 194.104 185.834 193.648 186.098C193.192 186.35 192.82 186.728 192.532 187.232C192.256 187.724 192.118 188.312 192.118 188.996C192.118 189.68 192.256 190.28 192.532 190.796C192.82 191.312 193.192 191.708 193.648 191.984C194.116 192.248 194.608 192.38 195.124 192.38C195.652 192.38 196.144 192.248 196.6 191.984C197.056 191.72 197.422 191.336 197.698 190.832C197.986 190.316 198.13 189.716 198.13 189.032ZM207.197 194.162C206.261 194.162 205.415 193.952 204.659 193.532C203.903 193.1 203.309 192.5 202.877 191.732C202.445 190.952 202.229 190.052 202.229 189.032C202.229 188.024 202.451 187.13 202.895 186.35C203.339 185.57 203.945 184.97 204.713 184.55C205.481 184.13 206.339 183.92 207.287 183.92C208.235 183.92 209.093 184.13 209.861 184.55C210.629 184.97 211.235 185.57 211.679 186.35C212.123 187.13 212.345 188.024 212.345 189.032C212.345 190.04 212.117 190.934 211.661 191.714C211.205 192.494 210.581 193.1 209.789 193.532C209.009 193.952 208.145 194.162 207.197 194.162ZM207.197 192.38C207.725 192.38 208.217 192.254 208.673 192.002C209.141 191.75 209.519 191.372 209.807 190.868C210.095 190.364 210.239 189.752 210.239 189.032C210.239 188.312 210.101 187.706 209.825 187.214C209.549 186.71 209.183 186.332 208.727 186.08C208.271 185.828 207.779 185.702 207.251 185.702C206.723 185.702 206.231 185.828 205.775 186.08C205.331 186.332 204.977 186.71 204.713 187.214C204.449 187.706 204.317 188.312 204.317 189.032C204.317 190.1 204.587 190.928 205.127 191.516C205.679 192.092 206.369 192.38 207.197 192.38ZM216.767 185.756V191.246C216.767 191.618 216.851 191.888 217.019 192.056C217.199 192.212 217.499 192.29 217.919 192.29H219.179V194H217.559C216.635 194 215.927 193.784 215.435 193.352C214.943 192.92 214.697 192.218 214.697 191.246V185.756H213.527V184.082H214.697V181.616H216.767V184.082H219.179V185.756H216.767ZM220.387 188.996C220.387 188 220.591 187.118 220.999 186.35C221.419 185.582 221.983 184.988 222.691 184.568C223.411 184.136 224.203 183.92 225.067 183.92C225.847 183.92 226.525 184.076 227.101 184.388C227.689 184.688 228.157 185.066 228.505 185.522V184.082H230.575V194H228.505V192.524C228.157 192.992 227.683 193.382 227.083 193.694C226.483 194.006 225.799 194.162 225.031 194.162C224.179 194.162 223.399 193.946 222.691 193.514C221.983 193.07 221.419 192.458 220.999 191.678C220.591 190.886 220.387 189.992 220.387 188.996ZM228.505 189.032C228.505 188.348 228.361 187.754 228.073 187.25C227.797 186.746 227.431 186.362 226.975 186.098C226.519 185.834 226.027 185.702 225.499 185.702C224.971 185.702 224.479 185.834 224.023 186.098C223.567 186.35 223.195 186.728 222.907 187.232C222.631 187.724 222.493 188.312 222.493 188.996C222.493 189.68 222.631 190.28 222.907 190.796C223.195 191.312 223.567 191.708 224.023 191.984C224.491 192.248 224.983 192.38 225.499 192.38C226.027 192.38 226.519 192.248 226.975 191.984C227.431 191.72 227.797 191.336 228.073 190.832C228.361 190.316 228.505 189.716 228.505 189.032Z" fill="white"/>
</g>
</g>
<defs>
<filter id="filter0_ddd_1017_2140" x="0" y="0" width="349" height="256" filterUnits="userSpaceOnUse" color-interpolation-filters="sRGB">
<feFlood flood-opacity="0" result="BackgroundImageFix"/>
<feColorMatrix in="SourceAlpha" type="matrix" values="0 0 0 0 0 0 0 0 0 0 0 0 0 0 0 0 0 0 127 0" result="hardAlpha"/>
<feOffset dy="2"/>
<feGaussianBlur stdDeviation="2"/>
<feColorMatrix type="matrix" values="0 0 0 0 0 0 0 0 0 0 0 0 0 0 0 0 0 0 0.2 0"/>
<feBlend mode="normal" in2="BackgroundImageFix" result="effect1_dropShadow_1017_2140"/>
<feColorMatrix in="SourceAlpha" type="matrix" values="0 0 0 0 0 0 0 0 0 0 0 0 0 0 0 0 0 0 127 0" result="hardAlpha"/>
<feOffset dy="1"/>
<feGaussianBlur stdDeviation="5"/>
<feColorMatrix type="matrix" values="0 0 0 0 0 0 0 0 0 0 0 0 0 0 0 0 0 0 0.12 0"/>
<feBlend mode="normal" in2="effect1_dropShadow_1017_2140" result="effect2_dropShadow_1017_2140"/>
<feColorMatrix in="SourceAlpha" type="matrix" values="0 0 0 0 0 0 0 0 0 0 0 0 0 0 0 0 0 0 127 0" result="hardAlpha"/>
<feOffset dy="4"/>
<feGaussianBlur stdDeviation="2.5"/>
<feColorMatrix type="matrix" values="0 0 0 0 0 0 0 0 0 0 0 0 0 0 0 0 0 0 0.14 0"/>
<feBlend mode="normal" in2="effect2_dropShadow_1017_2140" result="effect3_dropShadow_1017_2140"/>
<feBlend mode="normal" in="SourceGraphic" in2="effect3_dropShadow_1017_2140" result="shape"/>
</filter>
<filter id="filter1_ddd_1017_2140" x="0" y="0" width="348" height="134" filterUnits="userSpaceOnUse" color-interpolation-filters="sRGB">
<feFlood flood-opacity="0" result="BackgroundImageFix"/>
<feColorMatrix in="SourceAlpha" type="matrix" values="0 0 0 0 0 0 0 0 0 0 0 0 0 0 0 0 0 0 127 0" result="hardAlpha"/>
<feOffset dy="2"/>
<feGaussianBlur stdDeviation="2"/>
<feColorMatrix type="matrix" values="0 0 0 0 0 0 0 0 0 0 0 0 0 0 0 0 0 0 0.2 0"/>
<feBlend mode="normal" in2="BackgroundImageFix" result="effect1_dropShadow_1017_2140"/>
<feColorMatrix in="SourceAlpha" type="matrix" values="0 0 0 0 0 0 0 0 0 0 0 0 0 0 0 0 0 0 127 0" result="hardAlpha"/>
<feOffset dy="1"/>
<feGaussianBlur stdDeviation="5"/>
<feColorMatrix type="matrix" values="0 0 0 0 0 0 0 0 0 0 0 0 0 0 0 0 0 0 0.12 0"/>
<feBlend mode="normal" in2="effect1_dropShadow_1017_2140" result="effect2_dropShadow_1017_2140"/>
<feColorMatrix in="SourceAlpha" type="matrix" values="0 0 0 0 0 0 0 0 0 0 0 0 0 0 0 0 0 0 127 0" result="hardAlpha"/>
<feOffset dy="4"/>
<feGaussianBlur stdDeviation="2.5"/>
<feColorMatrix type="matrix" values="0 0 0 0 0 0 0 0 0 0 0 0 0 0 0 0 0 0 0.14 0"/>
<feBlend mode="normal" in2="effect2_dropShadow_1017_2140" result="effect3_dropShadow_1017_2140"/>
<feBlend mode="normal" in="SourceGraphic" in2="effect3_dropShadow_1017_2140" result="shape"/>
</filter>
<filter id="filter2_d_1017_2140" x="30" y="145" width="289" height="86" filterUnits="userSpaceOnUse" color-interpolation-filters="sRGB">
<feFlood flood-opacity="0" result="BackgroundImageFix"/>
<feColorMatrix in="SourceAlpha" type="matrix" values="0 0 0 0 0 0 0 0 0 0 0 0 0 0 0 0 0 0 127 0" result="hardAlpha"/>
<feOffset/>
<feGaussianBlur stdDeviation="4"/>
<feComposite in2="hardAlpha" operator="out"/>
<feColorMatrix type="matrix" values="0 0 0 0 0.132478 0 0 0 0 0.112805 0 0 0 0 0.112805 0 0 0 0.25 0"/>
<feBlend mode="normal" in2="BackgroundImageFix" result="effect1_dropShadow_1017_2140"/>
<feBlend mode="normal" in="SourceGraphic" in2="effect1_dropShadow_1017_2140" result="shape"/>
</filter>
<clipPath id="clip0_1017_2140">
<rect x="10" y="9" width="329" height="236" rx="4" fill="white"/>
</clipPath>
</defs>
</svg>
